<?xml version="1.0" encoding="UTF-8"?>
<svg id="Logo_Design" xmlns="http://www.w3.org/2000/svg" xmlns:xlink="http://www.w3.org/1999/xlink" version="1.1" viewBox="0 0 716.6 410.1">
  <!-- Generator: Adobe Illustrator 29.5.1, SVG Export Plug-In . SVG Version: 2.1.0 Build 141)  -->
  <defs>
    <style>
      .st0, .st1 {
        fill-rule: evenodd;
      }

      .st1 {
        fill: url(#linear-gradient);
      }
    </style>
    <linearGradient id="linear-gradient" x1="184.2" y1="280.3" x2="553.8" y2="-89.3" gradientUnits="userSpaceOnUse">
      <stop offset="0" stop-color="#a77c36"/>
      <stop offset="0" stop-color="#a77c36"/>
      <stop offset=".5" stop-color="#e8cd60"/>
      <stop offset=".9" stop-color="#a77c36"/>
      <stop offset="1" stop-color="#a77c36"/>
    </linearGradient>
  </defs>
  <g id="Swing.com">
    <path id="Registered_Mark" class="st0" d="M695.4,10.2c2.2,0,4.3.6,6.4,1.7,2.1,1.1,3.7,2.7,4.8,4.8,1.2,2.1,1.7,4.2,1.7,6.5s-.6,4.4-1.7,6.4c-1.1,2.1-2.7,3.7-4.8,4.8-2.1,1.1-4.2,1.7-6.4,1.7s-4.4-.6-6.4-1.7c-2.1-1.1-3.6-2.7-4.8-4.8-1.1-2.1-1.7-4.2-1.7-6.4s.6-4.4,1.7-6.5c1.2-2.1,2.8-3.7,4.8-4.8,2.1-1.1,4.2-1.7,6.4-1.7h0ZM695.4,12.4c-1.8,0-3.6.5-5.3,1.4-1.7.9-3.1,2.3-4,4-1,1.7-1.5,3.5-1.5,5.4s.5,3.6,1.4,5.4c1,1.7,2.3,3,4,4,1.7,1,3.5,1.4,5.4,1.4s3.6-.5,5.4-1.4c1.7-1,3-2.3,4-4,.9-1.7,1.4-3.5,1.4-5.4s-.5-3.7-1.4-5.4c-1-1.7-2.3-3.1-4-4-1.7-.9-3.5-1.4-5.3-1.4h0ZM689.7,30.3h2.2v-5.9h1.3c.8,0,1.4.2,1.8.5.6.4,1.4,1.5,2.4,3.2l1.2,2.2h2.7l-1.7-2.7c-.8-1.3-1.5-2.2-2.1-2.8-.3-.3-.7-.5-1.2-.7,1.2,0,2.2-.5,2.9-1.3.7-.7,1.1-1.6,1.1-2.6s-.2-1.4-.6-2c-.4-.6-1-1.1-1.8-1.3-.7-.3-1.9-.4-3.5-.4h-4.8v13.9h0ZM691.9,22.5h2.7c1.3,0,2.2-.2,2.7-.6.5-.4.7-.9.7-1.5s-.1-.8-.3-1.1c-.2-.3-.5-.6-.9-.7-.4-.2-1.2-.2-2.3-.2h-2.6v4.2Z"/>
    <path id="_x2E_com" class="st0" d="M658,316.4c-.7-12.6-1.1-21.8-1.9-34.4l-2.1-32.9c-.3-4.3,2.7-8.9,8.3-8.9h16.6c5.6,0,8.6,4.6,8.3,8.9l-2.1,32.9c-.8,12.6-1.2,21.8-1.9,34.4-.3,5.1-4.2,7.7-12.6,7.3-8.4.4-12.3-2.2-12.6-7.3h0ZM660,340.8c0-5.6,4.6-10.2,10.2-10.2s10.2,4.6,10.2,10.2-4.6,10.2-10.2,10.2-10.2-4.6-10.2-10.2h0ZM679.8,307.1c0-2.3-.4-4.3-1.4-6-.2-.3-.5-.6-.9-.8-.4-.2-.8-.3-1.3-.3-.8,0-1.4.2-1.9.5-.5.3-.7.8-.7,1.3s0,.7.2,1c.1.3.3.7.5,1.1.2.4.4.8.5,1.2.1.3.2.7.2,1.1,0,1.1-.4,2-1.2,2.6-.8.6-1.9.9-3.3.9-2.9,0-4.4-1.2-4.4-3.5,0-.4,0-.8.2-1.1,0-.3.3-.7.5-1.2.2-.4.4-.8.5-1.1.1-.3.2-.7.2-1,0-.6-.3-1-.7-1.3-.5-.3-1.1-.5-1.9-.5s-1.7.4-2.1,1.1c-.5.8-.8,1.6-1.1,2.6-.2,1-.3,2-.3,3,0,1.9.5,3.6,1.3,5,.8,1.5,1.9,2.6,3.3,3.4.7.4,1.5.7,2.3.9.8.2,1.7.3,2.6.3,1.4,0,2.7-.2,3.7-.6,1.1-.4,2.1-1.1,2.9-1.9,1.6-1.7,2.5-3.9,2.6-6.8h0ZM680.2,289c0-1.9-.3-3.6-1.1-5.1-.8-1.5-1.9-2.6-3.4-3.4-.7-.4-1.6-.7-2.4-.9-.9-.2-1.8-.3-2.8-.3s-2,.1-2.8.3c-.9.2-1.7.5-2.4.9-1.5.8-2.6,1.9-3.4,3.4-.8,1.5-1.1,3.2-1.1,5.1,0,1.9.5,3.6,1.3,5.1.8,1.5,1.9,2.6,3.4,3.4.7.4,1.5.7,2.3.9.8.2,1.7.3,2.7.3s1.9-.1,2.7-.3c.8-.2,1.6-.5,2.4-.9,1.4-.8,2.6-1.9,3.4-3.4.8-1.5,1.3-3.2,1.3-5.1h0ZM675.1,289c0-2.3-1.6-3.4-4.7-3.4s-4.7,1.1-4.7,3.4c0,2.2,1.6,3.4,4.7,3.4s4.7-1.1,4.7-3.4h0ZM659.8,254.1c0,1.3.4,2.4,1.1,3.4.6,1,1.5,1.8,2.6,2.4-2.3.9-3.5,2.6-3.4,5.1,0,2.4,1.1,4.2,3.1,5.3-.9,0-1.6.3-2.1.9-.5.6-.7,1.3-.7,2.1,0,.9.3,1.6.9,2.3.5.6,1.3.9,2.4.9,2.3,0,4.5,0,6.8,0s4.5,0,6.8,0,1.9-.3,2.4-.9c.5-.6.8-1.4.8-2.3,0-.9-.2-1.7-.8-2.3-.5-.6-1.3-.9-2.4-.9h-7.9c-1.2,0-2.1-.2-2.8-.7-.7-.5-1-1.1-1-2,0-.6.2-1.1.6-1.5.4-.3,1.2-.5,2.2-.5h8.8c1.1,0,1.9-.3,2.5-.9.6-.6.9-1.4.9-2.3,0-.9-.3-1.7-.8-2.3-.5-.6-1.4-.9-2.5-.9h-8.1c-1.2,0-2.1-.2-2.8-.7-.7-.5-1-1.2-1.1-2,0-.6.2-1.1.6-1.5.4-.3,1.2-.5,2.3-.5h9.1c1.1,0,2-.3,2.5-.9.6-.6.9-1.4.9-2.3,0-.9-.3-1.7-.8-2.3-.6-.6-1.4-.9-2.5-.9h-9c-1.6,0-3,.1-4.1.4-1.1.3-2,.6-2.7,1.2-1.3,1-2,2.5-1.9,4.5Z"/>
    <path id="Swing" class="st0" d="M72.9,351.6c-11.8,0-22.7-1.3-32.8-3.9-10.1-2.6-18.3-6.1-24.8-10.7-2.5-1.9-4.3-3.9-5.4-6-1.1-2.1-1.6-4.7-1.6-7.9s1.3-8.2,4-11.5c2.6-3.2,5.7-4.9,9.3-4.9s3.7.3,5.5.9c1.8.6,4,1.7,6.6,3.3,6,3.4,12,5.8,18,7.3,6,1.5,12.7,2.2,20.2,2.2s15.3-1.3,19.7-3.9c4.5-2.6,6.7-6.4,6.7-11.4s-2.1-6.3-6.3-8.7c-4.2-2.4-12.2-4.8-23.9-7.2-14.6-3.1-26-6.8-34.2-11-8.2-4.3-14-9.3-17.3-15.1-3.3-5.8-5-12.8-5-21.1s2.8-17.9,8.4-25.6c5.6-7.6,13.3-13.6,23.1-18,9.8-4.3,20.8-6.5,33-6.5s20.3,1.2,28.7,3.5c8.4,2.3,16,6,22.9,11,2.6,1.9,4.5,3.9,5.6,6.1,1.1,2.1,1.6,4.7,1.6,7.8,0,4.4-1.3,8.2-3.9,11.5-2.6,3.2-5.6,4.9-9.1,4.9s-3.7-.3-5.3-.8c-1.6-.5-3.9-1.7-6.8-3.4-.7-.4-2.8-1.6-6.3-3.4-3.5-1.8-7.5-3.3-12.1-4.4-4.6-1.1-9.7-1.6-15.1-1.6s-13.5,1.4-18.1,4.3c-4.6,2.9-6.8,6.7-6.8,11.4s.8,5.1,2.4,6.8c1.6,1.8,4.6,3.5,9,5.2,4.4,1.7,11,3.4,19.6,5.2,14.1,3.1,25.2,6.8,33.3,11.1,8.1,4.3,13.8,9.4,17.2,15.1,3.4,5.7,5.1,12.5,5.1,20.3s-2.7,18.3-8.2,25.7c-5.4,7.4-13.1,13.2-22.8,17.2-9.8,4-21.1,6.1-34.1,6.1h0ZM295.7,250c1.5-3.7,3.6-6.4,6.3-8.3,2.7-1.8,5.7-2.8,8.9-2.8,4.9,0,9.2,1.6,13,5,3.8,3.3,5.7,7.3,5.7,12s-.6,4.6-1.8,7.3l-35.7,76.6c-1.6,3.7-4.1,6.5-7.4,8.5-3.3,2-6.9,3-10.9,3s-7.6-1-10.8-3c-3.2-2-5.7-4.8-7.3-8.5l-20.9-46.6-19.6,46.6c-1.5,3.7-3.9,6.5-7.2,8.5-3.3,2-7,3-10.9,3s-7.6-1-10.9-3c-3.3-2-5.9-4.8-7.6-8.5l-35.5-76.6c-1-2.2-1.5-4.6-1.5-7.1,0-4.9,2-8.9,6.1-12.2,4.1-3.3,8.6-5,13.6-5s6.7.9,9.6,2.8c2.9,1.8,5,4.7,6.5,8.5l20.9,51,21.4-50.7c1.5-3.7,3.7-6.5,6.8-8.4,3.1-1.9,6.4-2.9,9.9-2.9s6.8,1,9.9,2.9c3.1,1.9,5.4,4.7,6.8,8.4l22.1,51,20.5-51.4h0ZM468.1,238.5c12.9,0,22.6,3.9,28.9,11.6,6.3,7.7,9.5,19.4,9.5,35.2v47.6c0,5.6-1.8,10-5.3,13.2-3.5,3.2-8.3,4.9-14.3,4.9s-10.8-1.6-14.3-4.9c-3.5-3.2-5.3-7.6-5.3-13.2v-45.9c0-6.5-1.1-11.2-3.4-14.1-2.3-2.9-5.7-4.4-10.3-4.4s-10.5,1.9-14,5.6c-3.5,3.8-5.2,8.8-5.2,15.1v43.7c0,5.6-1.8,10-5.3,13.2-3.5,3.2-8.3,4.9-14.3,4.9s-10.8-1.6-14.3-4.9c-3.5-3.2-5.3-7.6-5.3-13.2v-76.3c0-5.2,1.8-9.4,5.5-12.7,3.7-3.3,8.5-5,14.3-5s10,1.5,13.3,4.6c3.3,3.1,5,7.1,5,12.1,3.8-5.6,8.7-9.8,14.8-12.8,6-2.9,12.7-4.4,20.1-4.4h0ZM618.4,238.9c5.9,0,10.6,1.6,14.1,5,3.5,3.3,5.3,7.7,5.3,13.1v81.2c0,42.5-23.1,59.6-63.7,59.6l-34.3-.2c-21.5,0-24.8-31-.4-31l33.6.2c18.4,0,26-7.3,26-25.9v-10.2c-3.2,4.9-7.9,8.7-13.9,11.6-6,2.9-12.6,4.3-19.6,4.3s-17.8-2.2-25.1-6.6c-7.4-4.4-13.1-10.7-17.2-18.9-4.1-8.2-6.2-17.6-6.2-28.3s2.1-20.2,6.2-28.5c4.1-8.2,9.9-14.6,17.2-19.1,7.3-4.5,15.7-6.7,25.1-6.7s13.8,1.5,19.9,4.4c6,2.9,10.7,7,13.9,12.1.3-5,2.2-8.9,5.6-11.8,3.5-2.9,8-4.3,13.6-4.3h0ZM577.3,317.2c6.9,0,12.3-2.1,16.1-6.4,3.8-4.3,5.7-10.3,5.7-18.1s-1.9-13.9-5.7-18.3c-3.8-4.4-9.2-6.6-16.1-6.6s-12,2.2-15.9,6.5c-3.8,4.3-5.7,10.5-5.7,18.4s1.9,13.6,5.8,18c3.9,4.3,9.1,6.5,15.8,6.5h0ZM362.1,351c-5.6,0-10.3-1.5-14-4.5-3.7-3-5.6-7.5-5.6-13.6v-75.9c0-6,1.9-10.5,5.6-13.6,3.8-3,8.4-4.5,14-4.5s10.3,1.5,14,4.5c3.7,3,5.6,7.5,5.6,13.6v75.9c0,6-1.9,10.6-5.6,13.6-3.8,3-8.4,4.5-14,4.5Z"/>
    <path id="Peoples" class="st1" d="M61.2,47.8v-6c.5-6.3,2.8-12.4,6.3-16.5,9.4-10.7,22.2-1.8,24.8,12.8,1.3,7.3-.5,11.6,1,21.9,3.4,23.8,20.3,64.9,43.7,74.2,11.1,4.4,13.9,1.5,18.3-1.4.3,4.1,4.1,19.8,9.6,19.3,1.6-.1,2.1-1,2.8-2.1,2.1-2.9,3.1-6.6,4.1-10,2.9-9.8.7-9.2,4-8.6,3.2.6,9.6.7,12.5-.7,9.9-4.6,28.3-35,29.4-46.1-5.2-10.1-15.7-27.8-15.7-39.6,0-7.8,1.6-15.3,6.8-20.7,9.2-9.7,17.3-.7,18.8.1,3-2.9,4.1-4.6,10.3-4.4,8.9.2,15.4,10.7,18,18.2,1.9,5.4,1.7,7.3,1.7,13.2,0,4-1.8,7.6-3.9,10.6-.4,1.8-9.3,19.3-12.6,23.7,4.8,21.1,14,33.3,26.1,42.9,14.7,11.7,30.4,24.8,41.6,52.4.4-4.4,2-10.6,3.3-14.4,10-30,39.7-52.2,45-77-5.2-9-10.1-15.5-14-25.4-1-2.4-1.7-2.7-2.8-4.9-5.8-11.5-1.2-26.3,7.2-34.8,6-6,15.2-8.3,20.7,0,2.3-1.3.4-1.5,4.4-3.8,6.2-3.5,12.1-.6,16.6,3.9,5.4,5.5,9.7,13.7,9.8,21.6,0,8.6-.8,10.7-4.1,15.6-4.9,11.1-8.8,17.6-15.2,27.9,4.9,14.8,10.8,25.6,21.9,37.4,14.7,15.6,25,33.9,26.8,54.8l1-1.8c1.9-4.5,2.4-4.9,4.2-8.6,6.3-12.9,17.8-27.9,29.2-36.1,4.9-3.5,28-21.3,33.2-47.7-5.1-7.7-10.3-17.9-13.4-24.9-1.1-2-1.9-2.5-2.8-4.8-2.4-6.1-1.6-14.6,1.3-22.2,3.5-8.9,10.2-15.8,17.1-16,5.5-.2,8.2,2.6,10.8,5.9,3.9-5.4,12.4-8.6,19.3-1.7,4.2,4.2,7.6,12.7,7.1,21.5,1,9.3-12.2,34.3-16.9,40.6,2.6,12.1,16.2,35,25.7,42.9,5.3,4.4,11.6,4,17.8,2.3,0,1.6.9,4.7,1.3,6.4,8.3,33.7,17.1.6,17.2-4.3,3.6.8,5.4,5.9,18.2,1.3,23.3-8.4,40.7-52.4,43.7-72.7,1.7-11.6.2-15.2,1-22.4,1.5-14.6,14.6-24.4,23.8-15.5,15.4,15,4.5,37-2.5,51.2-8.4,17-19.3,32.4-30.8,47.3-33.4,43.3-54.1,62.6-37.7,117.2-2.3-1.7-4.7-3.2-7.4-4.5-3.5-1.7-7.3-3-11.3-3.9-4-.9-8-1.3-12.2-1.3s-10.6.7-15.5,2c-4.9,1.3-9.6,3.3-14,6-4.4,2.7-8.3,5.9-11.7,9.7-1.6,1.8-3.2,3.8-4.6,5.9,6.5-33.5,22.6-97.6,20.2-108.8-1.9-8.8-24.3-31.3-32.1-40.5l-.4.4c0,0-.3.3-.4.4-1.4,1.9-46.6,59.9-46.9,61.1.7,3,13.2,32.2-11.6,37.1-1.1,11.6.3,19.9,3,29.2-2.4.8-4.8,1.7-7.1,2.8-2.8,1.4-5.4,3-7.9,4.9-.8-1-1.6-1.9-2.6-2.8-2.5-2.3-5.4-4.1-8.7-5.2-3.2-1.1-6.6-1.6-10.3-1.6s-7.4.6-10.7,1.7c-3.5,1.2-6.6,3-9.2,5.4-2.9,2.6-5.1,5.8-6.5,9.4-5.1-14.4,15.4-31.7,14.5-47.7-22.5-11.9,1.3-36.1,1.1-39.1-.9-18.3-23.7-40.9-35.8-54.7-10.9,12.7-43.9,41.3-32.2,59.2,6.5,9.8,12.5,25.6,0,32.9-.8.5-1.1.5-1.9.9,0,8.3,7.8,19.3,14.1,35-1.9.9-3.7,2-5.3,3.4-3,2.4-5.2,5.4-6.7,9l-.2.5-.3-.6c-1.4-3-3.6-5.8-6.4-8.2-2.7-2.3-5.5-4.1-8.6-5.2-3.1-1.2-6.4-1.8-9.9-1.8s-4.8.4-7.1,1.1c-2.3.7-4.4,1.7-6.5,3.1-2.1,1.4-4,3.2-5.6,5.3-1.5,2-2.8,4.3-3.8,6.7h0s-13.1,32.8-13.1,32.8l-6.5-15.1,3-5.8c2.4-4,19.1-41.1,17.2-55.6-.6-.8-2-.4-4.8-2-11.3-6.4-11.2-16.7-8.3-28.3,1.2-4.8,2-5.8,1.6-7.1-.8-3.4-43-56.1-47.9-62.6-15.3,18.7-30.2,31.6-32.7,41.1-1.6,6.3.4,16.5,3.6,29.4,6,23.7,8.4,47.2,11,71.6,0,.9.2,2,.4,3.1l-13.2,31.2-13.3-32.4c-1-2.6-2.3-4.9-3.8-6.9-1.7-2.2-3.6-4-5.9-5.5-2.1-1.4-4.4-2.4-6.8-3.1-2.4-.7-4.8-1-7.3-1s-6.8.6-10,1.8c-3.1,1.2-6.1,2.8-8.8,5.1h0c-.2.1-.3.3-.5.4,15.2-44.7-.3-65.8-28.7-101-19.4-24-42.6-56.5-50.8-83.4-.5-1.8-.9-3.6-1.1-5.5h0ZM329.7,87.5c-.9-47.1-51.1-49.6-53-.5-.7,17.2,7.1,40.9,27.5,40.4,18.4-.4,25.9-24.5,25.6-39.9h0ZM449.3,120.1c.9-.7.8-.8,1.5-1.8,3.8-5.5,5.5-6.3,7.8-15.1,3.7-14.1,1.7-30.8-7.1-42.5-3.5-4.6-9.1-9.7-16.7-9.9-7.3-.2-13.8,2.9-18,8.2-9.7,12.5-11.7,25.4-9,41.3,1,5.6,3.5,11.6,6.8,16.2.7.9,1,1.1,1.6,2.1,9.9,13.3,27,10.3,33,1.6h0ZM603.1,81.9c.6-17.3-8.8-43.1-29.3-43.7-16.6-.5-32.7,18-31.6,44.2.7,17.1,9.9,38.9,29.7,39.7,20.7.9,30.7-22.5,31.3-40.2h0ZM164.1,122.4c19.4.4,29.2-24.4,29.6-40.1.5-21.2-10.1-44.1-32.2-43.5-20.9.5-30.4,29.5-28.4,47.5,1.8,17,11.8,35.8,31.1,36.2Z"/>
  </g>
</svg>